PathFileType	4	(x/y/z)	S10_PSF_T03
DataRate	CameraRate	NumFrames	NumMarkers	Units	OrigDataRate	OrigDataStartFrame	OrigNumFrames
240	240	4	51	mm	240	166	440
Frame#	Time	Sternum			R.Acromium			L.Acromium			Top.Head			R.ASIS			L.ASIS			R.PSIS			L.PSIS			R.Great.Tro			L.Great.Tro			R.Iliac.Crest			L.Iliac.Crest			V.Sacral			R.Thigh.Upper.Post			R.Thigh.Lower.Ant			R.Thigh.Lower.Post			R.Thigh.Upper.Ant			R.Knee.Lat			R.Knee.Med			R.Shank.Upper.Post			R.Shank.Lower.Ant			R.Shank.Lower.Post			R.Shank.Upper.Ant			R.Ankle.Lat			R.Ankle.Med			R.Heel.Upper			R.Heel.Med			R.Heel.Lat			R.Toe.Lat			R.Toe.Med			R.Toe.Tip			L.Thigh.Upper.Post			L.Thigh.Lower.Ant			L.Thigh.Lower.Post			L.Thigh.Upper.Ant			L.Knee.Lat			L.Knee.Med			L.Shank.Upper.Post			L.Shank.Lower.Ant			L.Shank.Lower.Post			L.Shank.Upper.Ant			L.Ankle.Lat			L.Ankle.Med			L.Heel.Upper			L.Heel.Med			L.Heel.Lat			L.Toe.Lat			L.Toe.Med			L.Toe.Tip			Cervical.Spine			Back			
		X1	Y1	Z1	X2	Y2	Z2	X3	Y3	Z3	X4	Y4	Z4	X5	Y5	Z5	X6	Y6	Z6	X7	Y7	Z7	X8	Y8	Z8	X9	Y9	Z9	X10	Y10	Z10	X11	Y11	Z11	X12	Y12	Z12	X13	Y13	Z13	X14	Y14	Z14	X15	Y15	Z15	X16	Y16	Z16	X17	Y17	Z17	X18	Y18	Z18	X19	Y19	Z19	X20	Y20	Z20	X21	Y21	Z21	X22	Y22	Z22	X23	Y23	Z23	X24	Y24	Z24	X25	Y25	Z25	X26	Y26	Z26	X27	Y27	Z27	X28	Y28	Z28	X29	Y29	Z29	X30	Y30	Z30	X31	Y31	Z31	X32	Y32	Z32	X33	Y33	Z33	X34	Y34	Z34	X35	Y35	Z35	X36	Y36	Z36	X37	Y37	Z37	X38	Y38	Z38	X39	Y39	Z39	X40	Y40	Z40	X41	Y41	Z41	X42	Y42	Z42	X43	Y43	Z43	X44	Y44	Z44	X45	Y45	Z45	X46	Y46	Z46	X47	Y47	Z47	X48	Y48	Z48	X49	Y49	Z49	X50	Y50	Z50	X51	Y51	Z51	

166	0.6875	-529.34	1240.4	326.36	-678.27	1383.1	470.56	-628.36	1432.5	173.61	-712.73	1709.3	345.85	-588.46	984.18	413.18	-577.83	979.84	183.62	-788.45	992.35	318.61	-778.05	996.62	238.72	-646.95	913.63	488.34	-647.86	910.55	126.63	-689.73	1061.4	451.16	-642.22	1057	155.07	-803.43	959.72	282.33	-552.51	718.65	483.15	-475.76	667.48	438.41	-525.64	633.48	472.06	-502.65	754.64	443.47	-481.72	518.02	428.59	-504.71	519.14	303.96	-507.43	283.93	436.77	-434.49	232.99	416.15	-493.72	210.88	430.91	-442.49	310.36	421.39	-464.25	107.42	409.8	-453.5	120.75	330.37	-521.36	64.412	362.27	-509.7	35.532	336.13	-515.64	40.232	397.06	-344.84	39.774	446.34	-312.85	46.915	339.06	-256.7	65.546	382.99	-750.15	654.34	150.87	-696.89	558.78	168.94	-769.67	563.35	172.01	-672.66	643.11	148.13	-768.68	474.71	174.49	-750.02	463.11	302.65	-950.62	352.5	169.43	-958.65	241.33	177.45	-999.57	291.44	176.45	-909.55	301.64	170.52	-1063.7	178.91	184.25	-1040.7	175.44	267.53	-1132.2	194.33	229.54	-1140.6	163.39	263.07	-1148.4	167.3	199.66	-1027.3	51.521	155.52	-995.64	45.724	260.72	-948.98	41.794	215.97	-733.5	1461.2	320.29	-813.03	1256.6	277.3
167	0.69167	-523.37	1241.3	327.21	-672.55	1383.7	471.3	-622.85	1433.2	174.29	-707.3	1709.9	346.71	-582.51	985.19	414.07	-571.96	980.39	184.51	-782.38	993.01	319.3	-771.66	996.99	239.5	-641.02	914.7	489.21	-641.66	910.67	127.71	-683.84	1062.4	451.83	-635.92	1057.5	155.99	-797.43	960.22	283.13	-546.72	719.32	483.87	-470	668.11	439.12	-519.95	634.11	472.66	-496.76	755.32	444.37	-476.32	518.47	428.91	-499.05	520.24	304.36	-504.47	284.48	437.06	-432.19	232.73	416.04	-491.62	211.29	431.06	-439.3	310.2	421.41	-463.71	107.57	409.58	-452.76	120.84	330.3	-521.29	64.518	362.23	-509.67	35.569	336.13	-515.59	40.327	397.05	-344.78	39.777	446.31	-312.69	46.553	338.96	-256.47	64.948	382.92	-741.68	653.02	151.92	-687.39	557.97	169.52	-760.37	561.65	173.05	-663.99	642.65	148.82	-758.57	473.69	174.86	-739.15	461.42	302.86	-941.98	354.24	170.05	-951.47	243.16	177.3	-991.71	293.92	176.87	-901.55	302.86	170.57	-1057.4	182.21	184.32	-1034.3	177.92	267.39	-1124.2	199.85	229.89	-1133.8	169.43	263.49	-1141.7	173.61	200.04	-1025.7	53.146	155.6	-994.25	46.331	260.73	-948.37	41.346	215.99	-727.99	1461.7	321.09	-807.26	1257.1	278.02
168	0.69583	-517.45	1242.3	328.03	-666.85	1384.4	472.02	-617.38	1433.9	174.94	-701.88	1710.5	347.56	-576.57	986.18	414.97	-566.14	980.97	185.41	-776.34	993.67	320.02	-765.38	997.4	240.3	-635.09	915.72	490.08	-635.5	910.82	128.8	-677.96	1063.4	452.53	-629.69	1057.9	156.93	-791.47	960.75	283.95	-541.01	719.95	484.6	-464.36	668.67	439.83	-514.38	634.69	473.28	-490.96	755.93	445.25	-471.14	518.83	429.27	-493.46	521.24	304.78	-501.67	284.98	437.33	-430.03	232.45	415.96	-489.63	211.66	431.2	-436.26	310.01	421.44	-463.22	107.72	409.36	-452.08	120.92	330.24	-521.24	64.6	362.2	-509.63	35.592	336.13	-515.54	40.404	397.03	-344.72	39.815	446.29	-312.54	46.251	338.87	-256.28	64.44	382.85	-733.14	651.71	152.89	-677.8	557.21	170	-750.96	559.98	173.98	-655.26	642.24	149.41	-748.35	472.7	175.16	-728.06	459.7	302.98	-933.09	356	170.66	-944.07	245.04	177.11	-983.62	296.42	177.3	-893.32	304.11	170.59	-1050.8	185.57	184.36	-1027.7	180.44	267.27	-1115.9	205.41	230.22	-1126.6	175.55	263.89	-1134.5	180.02	200.41	-1024	54.941	155.68	-992.73	47.067	260.76	-947.64	40.868	215.99	-722.5	1462.3	321.86	-801.53	1257.6	278.77
169	0.7	-511.57	1243.3	328.83	-661.17	1385.2	472.72	-611.98	1434.7	175.57	-696.45	1711.2	348.42	-570.64	987.16	415.89	-560.38	981.59	186.32	-770.32	994.33	320.77	-759.19	997.84	241.12	-629.18	916.7	490.95	-629.4	911.01	129.9	-672.09	1064.3	453.27	-623.55	1058.4	157.87	-785.55	961.28	284.81	-535.38	720.52	485.33	-458.84	669.13	440.53	-508.95	635.21	473.9	-485.23	756.45	446.11	-466.17	519.11	429.65	-487.96	522.13	305.21	-499.02	285.43	437.57	-427.99	232.15	415.91	-487.78	211.99	431.32	-433.39	309.78	421.5	-462.77	107.86	409.15	-451.43	121.01	330.17	-521.2	64.663	362.17	-509.6	35.602	336.13	-515.5	40.463	397.02	-344.67	39.877	446.27	-312.42	46	338.77	-256.12	64.008	382.78	-724.54	650.43	153.78	-668.14	556.49	170.38	-741.45	558.34	174.8	-646.47	641.89	149.9	-738.02	471.73	175.39	-716.77	457.98	303.01	-923.98	357.79	171.25	-936.46	246.96	176.9	-975.3	298.95	177.72	-884.89	305.4	170.59	-1044	188.97	184.38	-1020.8	183.02	267.16	-1107.2	211.01	230.52	-1119	181.75	264.25	-1127	186.51	200.76	-1022	56.913	155.77	-991.03	47.942	260.83	-946.78	40.364	215.99	-717.04	1462.9	322.62	-795.81	1258.2	279.54
